Coordinates
version=1
nRows=6
nColumns=107
inDegrees=yes

Units are S.I. units (second, meters, Newtons, ...)
If the header above contains a line with 'inDegrees', this indicates whether rotational values are in degrees (yes) or radians (no).

endheader
time	sternoclavicular_r2	sternoclavicular_r3	unrotscap_r3	unrotscap_r2	acromioclavicular_r2	acromioclavicular_r3	acromioclavicular_r1	unrothum_r1	unrothum_r3	unrothum_r2	elv_angle	shoulder_elv	shoulder1_r2	shoulder_rot	elbow_flexion	pro_sup	deviation	flexion	proximal_distal_r1	proximal_distal_r3	cmc_flexion	cmc_abduction	mp_flexion	ip_flexion	mcp2_flexion	mcp2_abduction	pm2_flexion	md2_flexion	mcp3_flexion	mcp3_abduction	pm3_flexion	md3_flexion	mcp4_flexion	mcp4_abduction	pm4_flexion	md4_flexion	mcp5_flexion	mcp5_abduction	pm5_flexion	md5_flexion	bicpt_tx	bicpt_ty	bicpt_tz	bicpt2_tx	bicpt2_ty	bicpt2_tz	ptpt_tx	ptpt_ty	ptpt_tz	FCUpt_tx	FCUpt_ty	FCUpt_tz	EDCpt_tx	EDCpt_ty	EDCpt_tz	APLpt_tx	APLpt_ty	APLpt_tz	FPLpt_tx	FPLpt_ty	FPLpt_tz	FPLpt2_tx	FPLpt2_ty	FPLpt2_tz	PEC1pt2_tx	PEC1pt2_ty	PEC1pt2_tz	PEC1pt3_tx	PEC1pt3_ty	PEC1pt3_tz	PEC2pt2_tx	PEC2pt2_ty	PEC2pt2_tz	PEC2pt3_tx	PEC2pt3_ty	PEC2pt3_tz	PEC3pt2_tx	PEC3pt2_ty	PEC3pt2_tz	PEC3pt3_tx	PEC3pt3_ty	PEC3pt3_tz	DELT2pt2a_tx	DELT2pt2a_ty	DELT2pt2a_tz	DELT2pt2_tx	DELT2pt2_ty	DELT2pt2_tz	LAT1pt2_tx	LAT1pt2_ty	LAT1pt2_tz	LAT1pt3_tx	LAT1pt3_ty	LAT1pt3_tz	LAT2pt2_tx	LAT2pt2_ty	LAT2pt2_tz	LAT2pt3_tx	LAT2pt3_ty	LAT2pt3_tz	LAT3pt2_tx	LAT3pt2_ty	LAT3pt2_tz	LAT3pt3_tx	LAT3pt3_ty	LAT3pt3_tz
      1.06666667	     -0.32074637	      0.13585302	     -0.13585302	      0.32074637	     -0.06494462	      0.52485954	      0.23592075	     -0.23592075	     -0.52485954	      0.06494462	     97.86439828	     75.93955418	     -1.70805597	    -22.65811161	     30.25366750	     31.82537202	      0.11829874	     -1.03298978	      0.14909343	     -0.51649489	     12.21867437	      1.05528320	    -40.89671605	    -54.58613843	     70.44741779	     13.19219280	     85.00544774	     81.42579742	     78.90472134	      4.30181431	     84.38918451	     55.14319053	     82.70272262	    -11.77673733	     92.38795845	     43.94522975	     88.73287359	    -13.91327633	     92.95957268	      5.55197100	      0.00090070	     -0.03106753	     -0.00485853	      0.01648270	     -0.01841856	     -0.00829584	      0.00519846	     -0.06642054	     -0.00261370	      0.00696754	     -0.18365563	     -0.00030323	     -0.00381904	      0.00105802	      0.00018700	      0.00016328	      0.00006531	      0.00032655	      0.00020899	      0.00062698	      0.00035268	      0.00002933	     -0.00022253	     -0.00026703	      0.00248913	      0.00873306	      0.00607517	     -0.00814241	      0.01965992	     -0.01864740	      0.00248913	      0.00873306	      0.00607517	      0.00054845	      0.01822551	     -0.00957683	      0.00393932	      0.00485634	      0.01594653	      0.00000000	      0.00771201	      0.00000000	     -0.00712989	     -0.03294936	     -0.00635852	      0.01526288	     -0.00051495	     -0.00427559	     -0.00088596	      0.01485041	     -0.00607517	      0.00244694	      0.02143185	     -0.01771924	     -0.00594860	      0.01286755	     -0.00544234	     -0.01240347	      0.02716951	     -0.03041804	     -0.02328815	      0.01438634	     -0.00729864	     -0.01544106	      0.03138838	     -0.03801200
      1.10000000	     -0.32418077	      0.13730767	     -0.13730767	      0.32418077	     -0.06564001	      0.53047948	      0.23844687	     -0.23844687	     -0.53047948	      0.06564001	     97.18119898	     76.75267804	     -1.69613189	    -18.90515030	     30.11967267	     29.10603124	      0.14347558	     -1.02489460	      0.17786783	     -0.51244730	     13.01253053	      0.93055183	    -40.55102701	    -51.92088205	     66.02100010	     13.21216355	     84.30470340	     80.44340358	     75.13013369	      4.86468810	     83.91723147	     55.27513129	     78.83438599	    -11.61327501	     90.78459086	     42.65426649	     85.43636623	    -13.87268496	     92.52513270	      5.52307361	      0.00089627	     -0.03105217	     -0.00485606	      0.01641830	     -0.01838216	     -0.00854978	      0.00539939	     -0.06629062	     -0.00239465	      0.00670176	     -0.18370484	     -0.00026440	     -0.00349272	      0.00095540	      0.00019247	      0.00016894	      0.00006758	      0.00033789	      0.00021625	      0.00064875	      0.00036492	      0.00002787	     -0.00023124	     -0.00027749	      0.00251578	      0.00882657	      0.00614022	     -0.00822960	      0.01987043	     -0.01884706	      0.00251578	      0.00882657	      0.00614022	      0.00055433	      0.01842066	     -0.00967937	      0.00397005	      0.00490834	      0.01602143	      0.00000000	      0.00787923	      0.00000000	     -0.00720623	     -0.03330216	     -0.00649734	      0.01313646	     -0.00039855	     -0.00292766	     -0.00089545	      0.01500943	     -0.00614022	      0.00247314	      0.02166133	     -0.01790897	     -0.00601230	      0.01300533	     -0.00550061	     -0.01253628	      0.02746043	     -0.03074374	     -0.02353751	      0.01454038	     -0.00737679	     -0.01560639	      0.03172447	     -0.03841901
      1.13333333	     -0.32418955	      0.13731139	     -0.13731139	      0.32418955	     -0.06564179	      0.53049385	      0.23845334	     -0.23845334	     -0.53049385	      0.06564179	     97.21145703	     76.75475803	     -1.69666000	    -19.01939287	     30.12667879	     30.08301571	      0.15137581	     -1.00767005	      0.18668304	     -0.50383502	     13.98551213	      0.69253041	    -40.05582938	    -49.01607041	     60.42954140	     13.21915766	     82.99147401	     79.44870149	     70.14244038	      5.48714410	     82.97170132	     54.75457326	     73.52560198	    -11.34238323	     88.69463117	     41.70263566	     81.00678857	    -13.82636577	     91.51412944	      5.53764455	      0.00089650	     -0.03105298	     -0.00485618	      0.01644339	     -0.01838406	     -0.00845974	      0.00532720	     -0.06633730	     -0.00247335	      0.00679698	     -0.18368740	     -0.00027899	     -0.00360995	      0.00099201	      0.00019097	      0.00018064	      0.00007226	      0.00036128	      0.00023122	      0.00069366	      0.00039019	      0.00002594	     -0.00024099	     -0.00028919	      0.00251585	      0.00882680	      0.00614039	     -0.00822982	      0.01987097	     -0.01884757	      0.00251585	      0.00882680	      0.00614039	      0.00055434	      0.01842116	     -0.00967964	      0.00397013	      0.00490847	      0.01602162	      0.00000000	      0.00787966	      0.00000000	     -0.00720643	     -0.03330306	     -0.00649769	      0.01320396	     -0.00040201	     -0.00296543	     -0.00089547	      0.01500983	     -0.00614039	      0.00247321	      0.02166192	     -0.01790946	     -0.00601246	      0.01300568	     -0.00550076	     -0.01253662	      0.02746117	     -0.03074457	     -0.02353815	      0.01454077	     -0.00737699	     -0.01560681	      0.03172533	     -0.03842005
      1.16666667	     -0.32454783	      0.13746314	     -0.13746314	      0.32454783	     -0.06571433	      0.53108013	      0.23871686	     -0.23871686	     -0.53108013	      0.06571433	     97.35575750	     76.83958312	     -1.69917851	    -18.91832399	     29.78692367	     30.54843350	      0.15519191	     -1.00632577	      0.19090400	     -0.50316289	     15.51063571	      0.68855234	    -39.92154580	    -48.42948055	     54.68363172	     13.25902698	     80.15728200	     78.67574764	     64.88796612	      6.23127693	     80.69811531	     54.10855804	     67.57505670	    -10.94254574	     85.58908129	     41.02748212	     75.78375932	    -13.79370399	     89.31942405	      5.48190623	      0.00088526	     -0.03101404	     -0.00484991	      0.01645457	     -0.01829176	     -0.00841637	      0.00529282	     -0.06635953	     -0.00251084	      0.00684245	     -0.18367900	     -0.00028569	     -0.00366580	      0.00100955	      0.00019007	      0.00018155	      0.00007262	      0.00036309	      0.00023238	      0.00069713	      0.00039214	      0.00002263	     -0.00025412	     -0.00030495	      0.00251863	      0.00883656	      0.00614717	     -0.00823892	      0.01989293	     -0.01886840	      0.00251863	      0.00883656	      0.00614717	      0.00055495	      0.01844152	     -0.00969033	      0.00397332	      0.00491390	      0.01602935	      0.00000000	      0.00789721	      0.00000000	     -0.00721439	     -0.03333987	     -0.00651226	      0.01314425	     -0.00039895	     -0.00293201	     -0.00089646	      0.01502642	     -0.00614717	      0.00247594	      0.02168586	     -0.01792925	     -0.00601911	      0.01302005	     -0.00550684	     -0.01255048	      0.02749152	     -0.03077855	     -0.02356416	      0.01455684	     -0.00738514	     -0.01562406	      0.03176039	     -0.03846251
      1.20000000	     -0.32208939	      0.13642186	     -0.13642186	      0.32208939	     -0.06521655	      0.52705721	      0.23690859	     -0.23690859	     -0.52705721	      0.06521655	     97.77810329	     76.25752556	     -1.70654984	    -21.66519290	     30.24509353	     34.26813178	      0.17656903	     -0.90548776	      0.21411107	     -0.45274388	     16.19173238	      0.26398569	    -38.97349162	    -43.69615961	     47.70754091	     13.26062381	     74.89898197	     78.84018309	     57.59682456	      6.86365519	     78.24368265	     53.02677424	     59.20066458	    -10.12231656	     82.03980518	     41.88196309	     67.54766419	    -13.78177230	     87.11557533	      5.50925551	      0.00090041	     -0.03106655	     -0.00485837	      0.01652612	     -0.01841623	     -0.00805888	      0.00501797	     -0.06653725	     -0.00281048	      0.00720823	     -0.18360964	     -0.00033336	     -0.00411217	      0.00115215	      0.00017867	      0.00023981	      0.00009592	      0.00047961	      0.00030695	      0.00092086	      0.00051798	      0.00002107	     -0.00025914	     -0.00031097	      0.00249955	      0.00876962	      0.00610061	     -0.00817651	      0.01974224	     -0.01872547	      0.00249955	      0.00876962	      0.00610061	      0.00055075	      0.01830182	     -0.00961693	      0.00395137	      0.00487668	      0.01597601	      0.00000000	      0.00777718	      0.00000000	     -0.00715974	     -0.03308732	     -0.00641263	      0.01471862	     -0.00048362	     -0.00389786	     -0.00088967	      0.01491260	     -0.00610061	      0.00245719	      0.02152159	     -0.01779344	     -0.00597351	      0.01292142	     -0.00546513	     -0.01245541	      0.02728327	     -0.03054540	     -0.02338566	      0.01444658	     -0.00732920	     -0.01550571	      0.03151980	     -0.03817116
      1.23333333	     -0.32241553	      0.13656000	     -0.13656000	      0.32241553	     -0.06528259	      0.52759090	      0.23714848	     -0.23714848	     -0.52759090	      0.06528259	     98.01635773	     76.33474249	     -1.71070816	    -21.69924300	     29.70771975	     34.37885731	      0.17261655	     -0.90510207	      0.20987672	     -0.45255103	     18.26846436	     -0.05674909	    -39.14105255	    -43.12194207	     40.96444213	     13.28141712	     69.47877713	     76.87125689	     51.22986503	      7.45645878	     73.56267100	     51.74571772	     51.42322784	     -9.32620549	     77.64407018	     41.01667599	     59.87311653	    -13.77863107	     83.12020574	      5.39860479	      0.00088264	     -0.03100496	     -0.00484845	      0.01652776	     -0.01827025	     -0.00804794	      0.00500979	     -0.06654254	     -0.00281940	      0.00721918	     -0.18360751	     -0.00033462	     -0.00412545	      0.00115646	      0.00017821	      0.00024001	      0.00009600	      0.00048002	      0.00030721	      0.00092164	      0.00051842	      0.00001609	     -0.00027131	     -0.00032557	      0.00250209	      0.00877850	      0.00610678	     -0.00818479	      0.01976223	     -0.01874444	      0.00250209	      0.00877850	      0.00610678	      0.00055131	      0.01832035	     -0.00962667	      0.00395429	      0.00488161	      0.01598313	      0.00000000	      0.00779305	      0.00000000	     -0.00716699	     -0.03312082	     -0.00642580	      0.01473750	     -0.00048469	     -0.00391057	     -0.00089057	      0.01492770	     -0.00610678	      0.00245968	      0.02154338	     -0.01781145	     -0.00597956	      0.01293451	     -0.00547066	     -0.01246802	      0.02731090	     -0.03057633	     -0.02340934	      0.01446121	     -0.00733662	     -0.01552141	      0.03155172	     -0.03820981
